<svg xmlns="http://www.w3.org/2000/svg" xmlns:xlink="http://www.w3.org/1999/xlink" width="1977" height="238" viewBox="0 0 1977 238"><defs><clipPath id="b"><rect width="1977" height="238"/></clipPath></defs><g id="a" clip-path="url(#b)"><path d="M-6344.233-4591c-38.57,0-65.5-9.118-88.139-32.029-21.391-21.643-34.592-45.134-35.877-82.239-.072-1.013-.1-4.119-.1-4.612,0-.006,0-.017.02-.031-.018-.014-.02-.022-.02-.029s.01-.025.045-.055c-.035-.029-.045-.048-.045-.056a.042.042,0,0,1,.02-.03c-.018-.019-.02-.025-.02-.034-.008-.486.025-3.6.1-4.611,1.279-37.105,14.484-60.6,35.877-82.236,22.643-22.913,49.568-32.031,88.139-32.031h79.789v44.638h-79.789a76.353,76.353,0,0,0-53.844,22.285c-6.609,6.854-21.217,20.979-21.24,52.076.023,31.091,14.631,45.221,21.24,52.075a76.37,76.37,0,0,0,53.848,22.283h79.785V-4591Zm-580.316,0c-38.568,0-65.5-9.118-88.141-32.029-21.391-21.643-34.594-45.134-35.879-82.239-.07-1.013-.1-4.119-.1-4.612,0-.006,0-.017.021-.031-.018-.014-.021-.022-.021-.029s.016-.025.047-.055c-.035-.029-.047-.048-.047-.056a.062.062,0,0,1,.021-.03c-.018-.019-.021-.025-.021-.034-.008-.486.025-3.6.1-4.611,1.283-37.105,14.488-60.6,35.879-82.236,22.641-22.913,49.572-32.031,88.141-32.031h79.791v44.638h-79.791a76.355,76.355,0,0,0-53.846,22.285c-6.607,6.854-21.217,20.979-21.238,52.076.021,31.091,14.631,45.221,21.238,52.075a76.372,76.372,0,0,0,53.846,22.283h79.791V-4591ZM-8134-4591v-44.638h79.791a76.372,76.372,0,0,0,53.846-22.283c6.605-6.861,21.217-20.982,21.232-52.075-.016-31.094-14.627-45.222-21.234-52.076a76.353,76.353,0,0,0-53.844-22.285H-8134V-4829h79.789c38.57,0,65.5,9.118,88.141,32.029,21.389,21.642,34.59,45.133,35.879,82.238.064,1.008.1,4.118.1,4.612,0,.007-.008.016-.025.028.02.018.025.024.025.033s-.014.025-.047.056c.033.025.047.048.047.056a.078.078,0,0,1-.025.031c.02.017.025.022.025.031,0,.483-.029,3.6-.1,4.611-1.283,37.106-14.488,60.6-35.879,82.239-22.643,22.912-49.57,32.028-88.141,32.028Zm471.15-.1c-35.16,0-58.17-3.353-78.3-23.9s-30.207-57.146-30.207-91.354q0-54.64,33.961-88.634c22.639-22.666,47.377-34,83.5-34h84.191v44.565h-80.041c-21.521,0-38.887,8.636-52.1,22.087s-20.117,35.93-19.816,56.955,6.236,41.863,18.7,54.94,29.248,14.528,50.344,14.528h37.809v-61.625l45.109.206.23,106.225Zm1091.881-.055V-4829h51.777v237.838Zm-1307.242,0V-4829h51.781v237.838Zm1135.359-.017v-193.154h-60.4V-4829h172.9v44.666h-60.719v193.158Zm-399.783,0-39.465-155.836s-4.1-19.34-17.164-19.755c-13.061.413-17.164,19.755-17.164,19.755l-39.471,155.836h-55.936s34.627-119.194,51.291-180.392c15.928-58.441,61.277-57.429,61.277-57.429s45.348-1.011,61.271,57.429c16.666,61.194,51.289,180.392,51.289,180.392Zm-364.143-.156v-237.426h51.619v193.424h94.145v44Z" transform="translate(8134.005 4829)" fill="#000" stroke="rgba(0,0,0,0)" stroke-miterlimit="10" stroke-width="1"/><path d="M27.336-26.928a21.428,21.428,0,0,1-8.57-1.714,22.286,22.286,0,0,1-7.009-4.744,22.287,22.287,0,0,1-4.744-7.009A21.428,21.428,0,0,1,5.3-48.964a21.428,21.428,0,0,1,1.714-8.57,22.287,22.287,0,0,1,4.744-7.009,22.287,22.287,0,0,1,7.009-4.744A21.428,21.428,0,0,1,27.336-71a21.428,21.428,0,0,1,8.57,1.714,22.287,22.287,0,0,1,7.009,4.744,22.287,22.287,0,0,1,4.744,7.009,21.428,21.428,0,0,1,1.714,8.57,21.428,21.428,0,0,1-1.714,8.57,22.287,22.287,0,0,1-4.744,7.009,22.286,22.286,0,0,1-7.009,4.744A21.428,21.428,0,0,1,27.336-26.928Zm0-3.856a17.337,17.337,0,0,0,6.978-1.408,17.742,17.742,0,0,0,5.693-3.918,18.788,18.788,0,0,0,3.856-5.815,17.775,17.775,0,0,0,1.408-7.039A17.775,17.775,0,0,0,43.863-56a18.787,18.787,0,0,0-3.856-5.815,18.159,18.159,0,0,0-5.693-3.948A17.02,17.02,0,0,0,27.336-67.2a17.02,17.02,0,0,0-6.978,1.438,18.159,18.159,0,0,0-5.693,3.948A18.349,18.349,0,0,0,10.84-56a18.117,18.117,0,0,0-1.377,7.039,18.117,18.117,0,0,0,1.377,7.039,18.35,18.35,0,0,0,3.826,5.815,17.742,17.742,0,0,0,5.693,3.918A17.337,17.337,0,0,0,27.336-30.784Zm-7.1-7.039a1.19,1.19,0,0,1-1.347-1.347V-58.88a1.19,1.19,0,0,1,1.347-1.347h8.019a13.105,13.105,0,0,1,4.285.673,6.468,6.468,0,0,1,3.152,2.265A6.979,6.979,0,0,1,36.885-53a6.548,6.548,0,0,1-1.194,4.04,6.945,6.945,0,0,1-3.03,2.326l3.918,6.611a.761.761,0,0,1,.184.337,1.915,1.915,0,0,1,.061.52,1.459,1.459,0,0,1-.337.918,1.206,1.206,0,0,1-1.01.428H33.824a1.743,1.743,0,0,1-1.041-.306,2.551,2.551,0,0,1-.735-.857l-3.979-6.794H23.418v6.611a1.19,1.19,0,0,1-1.347,1.347Zm3.183-12h4.713q2.448,0,3.305-.979a3.26,3.26,0,0,0,.857-2.2,3.336,3.336,0,0,0-.857-2.265q-.857-.979-3.305-.979H23.418Z" transform="translate(1927.135 71.556)" fill="#000"/></g></svg>
